# xmcd
# 
# Track frame offsets:
#     150
#     27180
#     45951
#     60800
#     87508
#     113710
#     137199
#     155504
#     177715
#     206420
#     229549
#     251698
#     276385
# 
# Disc length: 3971
# 
# Revision: 18
# Processed by: cddbd v1.5.2PL0 Copyright (c) Steve Scherf et al.
# Submitted via: fre:ac v1.0.27
# 
DISCID=ad0f810d
DTITLE=いきものがかり - Hajimari no Uta
DYEAR=2009
DGENRE=J-POP
TTITLE0=01-ハジマリノウタ～遠い空澄んで～
TTITLE1=02-夢見台
TTITLE2=03-じょいふる
TTITLE3=04-YELL
TTITLE4=05-なくもんか
TTITLE5=06-真昼の月
TTITLE6=07-ホタルノヒカリ
TTITLE7=08-秋桜
TTITLE8=09-ふたり-Album version-
TTITLE9=10-てのひらの音
TTITLE10=11-How to make it
TTITLE11=12-未来惑星
TTITLE12=13-明日へ向かう帰り道
EXTD=YEAR: 2009
EXTT0=
EXTT1=
EXTT2=
EXTT3=
EXTT4=
EXTT5=
EXTT6=
EXTT7=
EXTT8=
EXTT9=
EXTT10=
EXTT11=
EXTT12=
PLAYORDER=
